<svg width="19" height="20" viewBox="0 0 19 20" fill="none" xmlns="http://www.w3.org/2000/svg">
<path d="M0.199219 7.37965C0.199219 5.66481 0.199219 4.80831 0.727338 4.27549C1.25546 3.74268 2.10441 3.74268 3.80413 3.74268H14.6189C16.3186 3.74268 17.1675 3.74268 17.6957 4.27549C18.2238 4.80831 18.2238 5.66481 18.2238 7.37965C18.2238 7.8079 18.2238 8.02248 18.0922 8.15614C17.9597 8.28889 17.7461 8.28889 17.3225 8.28889H1.10045C0.675968 8.28889 0.463278 8.28889 0.330798 8.15614C0.199219 8.02248 0.199219 7.80699 0.199219 7.37965Z" fill="#159559"/>
<path fill-rule="evenodd" clip-rule="evenodd" d="M0.727338 18.667C0.199219 18.1342 0.199219 17.2777 0.199219 15.5629V11.0167C0.199219 10.5884 0.199219 10.3738 0.330798 10.2402C0.463278 10.1074 0.676869 10.1074 1.10045 10.1074H17.3225C17.747 10.1074 17.9597 10.1074 18.0922 10.2402C18.2238 10.3738 18.2238 10.5884 18.2238 11.0167V15.5629C18.2238 17.2777 18.2238 18.1342 17.6957 18.667C17.1675 19.1998 16.3186 19.1998 14.6189 19.1998H3.80413C2.10441 19.1998 1.25546 19.1998 0.727338 18.667ZM5.60658 13.7444C5.36756 13.7444 5.13833 13.8402 4.96932 14.0107C4.80031 14.1812 4.70536 14.4125 4.70536 14.6536C4.70536 14.8948 4.80031 15.1261 4.96932 15.2966C5.13833 15.4671 5.36756 15.5629 5.60658 15.5629H12.8164C13.0554 15.5629 13.2847 15.4671 13.4537 15.2966C13.6227 15.1261 13.7176 14.8948 13.7176 14.6536C13.7176 14.4125 13.6227 14.1812 13.4537 14.0107C13.2847 13.8402 13.0554 13.7444 12.8164 13.7444H5.60658Z" fill="#159559"/>
<path d="M4.70508 1.92432V4.65204M13.7174 1.92432V4.65204" stroke="#159559" stroke-width="2" stroke-linecap="round"/>
</svg>
