<svg width="31" height="31" viewBox="0 0 31 31" fill="none" xmlns="http://www.w3.org/2000/svg">
<path d="M6.6665 7.66669H4.99984C4.11578 7.66669 3.26794 8.01788 2.64281 8.643C2.01769 9.26812 1.6665 10.116 1.6665 11V26C1.6665 26.8841 2.01769 27.7319 2.64281 28.357C3.26794 28.9822 4.11578 29.3334 4.99984 29.3334H19.9998C20.8839 29.3334 21.7317 28.9822 22.3569 28.357C22.982 27.7319 23.3332 26.8841 23.3332 26V24.3334" stroke="#149659" stroke-width="2" stroke-linecap="round" stroke-linejoin="round"/>
<path d="M21.6667 4.33333L26.6667 9.33333M28.975 6.975C29.6314 6.31858 30.0002 5.4283 30.0002 4.5C30.0002 3.57169 29.6314 2.68141 28.975 2.025C28.3186 1.36858 27.4283 0.999817 26.5 0.999817C25.5717 0.999817 24.6814 1.36858 24.025 2.025L10 16V21H15L28.975 6.975Z" stroke="#149659" stroke-width="2" stroke-linecap="round" stroke-linejoin="round"/>
</svg>
