<svg width="17" height="20" viewBox="0 0 17 20" fill="none" xmlns="http://www.w3.org/2000/svg">
<path d="M3.53694 13.3694C3.7799 13.3019 4.04106 13.3291 4.26296 13.4451C4.48486 13.561 4.64934 13.7562 4.7202 13.9877C4.79106 14.2192 4.76251 14.468 4.64082 14.6795C4.51913 14.8909 4.31427 15.0476 4.07132 15.1152C3.5942 15.2479 3.25067 15.3879 3.03024 15.5152C3.25735 15.6453 3.61614 15.7907 4.11426 15.9262C5.21641 16.2263 6.79377 16.4245 8.57533 16.4245C10.3569 16.4245 11.9343 16.2263 13.0364 15.9262C13.5355 15.7907 13.8933 15.6453 14.1204 15.5152C13.901 15.3879 13.5574 15.2479 13.0803 15.1152C12.8412 15.0447 12.6407 14.8875 12.5221 14.6774C12.4034 14.4674 12.3762 14.2214 12.4461 13.9924C12.5161 13.7634 12.6777 13.5697 12.8961 13.4532C13.1145 13.3367 13.3723 13.3066 13.6137 13.3694C14.2512 13.5467 14.8352 13.774 15.2836 14.0659C15.6987 14.3378 16.2093 14.8115 16.2093 15.5152C16.2093 16.2272 15.6863 16.7045 15.2646 16.9764C14.8084 17.2692 14.212 17.4974 13.5603 17.6747C12.2453 18.0338 10.4838 18.243 8.57533 18.243C6.66685 18.243 4.90532 18.0338 3.59038 17.6747C2.93863 17.4974 2.34223 17.2692 1.8861 16.9764C1.46433 16.7036 0.941406 16.2272 0.941406 15.5152C0.941406 14.8115 1.45192 14.3378 1.86702 14.0659C2.31551 13.774 2.89951 13.5467 3.53694 13.3694ZM8.57533 0.0581055C10.4734 0.0581055 12.2938 0.776568 13.636 2.05544C14.9781 3.33431 15.7321 5.06883 15.7321 6.87743C15.7321 9.21236 14.3962 11.1109 13.0126 12.4602C12.4625 12.9911 11.8715 13.482 11.2443 13.9286C10.6775 14.3341 9.38167 15.0943 9.38167 15.0943C9.13589 15.2274 8.85804 15.2973 8.57533 15.2973C8.29263 15.2973 8.01478 15.2274 7.769 15.0943C7.1259 14.7389 6.50404 14.3498 5.90632 13.9286C5.27827 13.4831 4.68713 12.9921 4.13811 12.4602C2.75446 11.1109 1.41853 9.21236 1.41853 6.87743C1.41853 5.06883 2.17255 3.33431 3.51471 2.05544C4.85687 0.776568 6.67723 0.0581055 8.57533 0.0581055ZM8.57533 5.05894C8.06917 5.05894 7.58374 5.25053 7.22583 5.59156C6.86792 5.9326 6.66685 6.39513 6.66685 6.87743C6.66685 7.35972 6.86792 7.82226 7.22583 8.16329C7.58374 8.50432 8.06917 8.69591 8.57533 8.69591C9.0815 8.69591 9.56693 8.50432 9.92484 8.16329C10.2827 7.82226 10.4838 7.35972 10.4838 6.87743C10.4838 6.39513 10.2827 5.9326 9.92484 5.59156C9.56693 5.25053 9.0815 5.05894 8.57533 5.05894Z" fill="#159559"/>
</svg>
