             <svg
                width="27"
                height="33"
                viewBox="0 0 27 33"
                fill="none"
                xmlns="http://www.w3.org/2000/svg"
                className="max-w-6"
              >
                <path
                  d="M13.5 0.822876C13.1381 0.822771 12.7803 0.899648 12.4503 1.0484C12.1204 1.19716 11.8259 1.41439 11.5863 1.68567C11.3467 1.95696 11.1676 2.2761 11.0608 2.62191C10.954 2.96772 10.922 3.33229 10.9669 3.69142C8.7708 4.25395 6.82444 5.53148 5.43474 7.32255C4.04503 9.11361 3.29104 11.3163 3.29167 13.5833V23.7916H1.83333C1.44656 23.7916 1.07563 23.9453 0.802136 24.2188C0.528645 24.4923 0.375 24.8632 0.375 25.25C0.375 25.6367 0.528645 26.0077 0.802136 26.2812C1.07563 26.5546 1.44656 26.7083 1.83333 26.7083H25.1667C25.5534 26.7083 25.9244 26.5546 26.1979 26.2812C26.4714 26.0077 26.625 25.6367 26.625 25.25C26.625 24.8632 26.4714 24.4923 26.1979 24.2188C25.9244 23.9453 25.5534 23.7916 25.1667 23.7916H23.7083V13.5833C23.709 11.3163 22.955 9.11361 21.5653 7.32255C20.1756 5.53148 18.2292 4.25395 16.0331 3.69142C16.0448 3.58836 16.0511 3.48288 16.0521 3.37496C16.0521 2.6981 15.7832 2.04897 15.3046 1.57036C14.826 1.09176 14.1769 0.822876 13.5 0.822876ZM13.5 32.5416C12.3397 32.5416 11.2269 32.0807 10.4064 31.2602C9.58594 30.4397 9.125 29.3269 9.125 28.1666H17.875C17.875 29.3269 17.4141 30.4397 16.5936 31.2602C15.7731 32.0807 14.6603 32.5416 13.5 32.5416Z"
                  fill="#ECE8E8"
                />
              </svg>